<?xml version="1.0" encoding="UTF-8"?>
<svg version="1.1" viewBox="0 0 1536 2048" width="1280" height="1280" xmlns="http://www.w3.org/2000/svg">
<path transform="translate(746,597)" d="m0 0 43 2 26 3 23 5 30 10 18 8 19 10 19 12 14 10 12 11 4 5 7 5 3 1h17l15 3 10 5 7 7 8 16 21 62 6 19h12l33-2 1 1v21l-1 25-1 64-1 28-1 12v10l30 8 20 8 17 11 15 14 7 8 9 12 9 16 7 21 2 11v35l-3 16-6 18-9 17-12 16-11 12-10 9-20 12-14 6-16 5-21 4-2 3v12l2 4 11 7 10 9 11 13 8 13 8 18 3 11 1 8v20l-2 17-4 14-9 19-9 12-7 7-8 7-2 2 1 5 4 4 4 2 19 1 17 4 16 8 10 8 8 7 9 12 7 17 5 16 5 6 16 8 17 8h7l10-9 9-6 5-3 2-8 2-12 6-17 9-16 7-9 9-10 8-7 17-12 16-7 14-3 23-1 24 2 17 3 15 6 14 8 9 7 12 11 10 13 1 7-16 11-25 17-12 7-4-2-10-10-11-7-6-2h-14l-24 5-9 6-11 9 4 4 18 11 9 7 7 8 8 14 5 12 2 11v25l-3 14-7 14-1 3 15 4h11l11-4 12-9 7-10 4-8 5-18 2-2h53l11 2 2 4-1 18-4 17-6 15-8 14-10 12-8 7-12 10-15 9-16 7-15 4-11 1h-25l-16-2-15-6-17-9-13-11-7-4h-7l-16 6-15 5-9 1h-13l-14-3-39-14-34-15-23-11-22-11-9-3-7 1h-20l-15-5-16-9-13-12-11-15-8-14-7-17-1-1-3 13-9 38-3 15-1 75-1 21-3 19-5 24-2 21-4 78-2 48-1 10v10l5 8 30 32 26 26 7 8 12 13 10 11 2 4-1 23-1 22h-286v-53l2-108 1-21 1-39 2-4v-24l-1-16v-23l-43 1v28l-1 11v21l3 8v54l1 2 2 107 1 34v22h-285l-1-7-3-34 2-7 7-9 8-7 8-9 9-11 34-34 7-8 14-14 3-6-1-21-1-33-1-13-1-39-2-20v-6l1-4-3-5-6-3-8-15-6-16-5-24-2-16-1-30-1-62-5-25-10-42-9-38-5-20v-2l-7 4-8 11-2 4 2 11 2 13v15l-3 17-7 16-10 15-7 8-15 10-11 7-4 4-5 25-6 47v7l3 8 5 5 7 6 9 12 5 6 3 2 10 1 20 6 19 10 9 7 10 9 10 13 9 16 8 22 3 16v23l-4 21-7 19-9 17-10 13-8 8-11 9-4 4-5-2-9-12-14-21-10-16-1-6 9-10 8-10 5-16 1-4v-8l-4-13-6-10-9-10-5-3-3 1-6 11-10 13-6 7-11 8-12 6-10 3-7 1h-29l-13-4-12-5h-4l-3 12v11l4 12 7 10 10 7 10 6 10 3 8 3 1 2 1 24v30l-2 8-3 3h-13l-14-1-13-4-16-8-12-9-14-12-9-10-12-19-7-16-4-16-2-13v-17l3-18 6-18 9-17 11-14 3-8 1-15 4-11v-10l-8-18-3-12v-27l5-43 5-32 7-30 2-8-1-10-5-19-1-18 2-15 5-15 6-11 9-11 15-15 14-9 10-6 9-10 12-17 11-13 8-10 6-8-1-5-7-21-2-10v-33l3-14 6-16 9-15 9-11 11-12-5-4-14-9-12-11-11-14-9-15-6-15-5-21-1-12v-16l2-17 4-14 5-12 9-16 11-15 11-12 10-9 13-8 14-7 15-5-1-13-12-65-12-66-2-10v-7h18l22-2 3-11 11-59 5-25 4-10 9-10 9-6 13-3h12l5-4 11-14 7-9 9-10 11-11 8-7 14-12 21-14 19-11 23-10 18-6 24-6z" fill="#3F6D92"/>
<path transform="translate(746,597)" d="m0 0 43 2 26 3 23 5 30 10 18 8 19 10 19 12 14 10 12 11 4 5 7 5 3 1h17l15 3 10 5 7 7 8 16 21 62 6 19h12l33-2 1 1v21l-1 25-1 64-1 28-1 12v10l30 8 20 8 17 11 15 14 7 8 9 12 9 16 7 21 2 11v35l-3 16-6 18-9 17-12 16-11 12-10 9-20 12-14 6-16 5-20 3-1-13v-26l1-17 2-89-6 1v2l-7 5h-3v2h-3l-1 3-5 3-5 5-5 3-3 3-6 5-5 4-13 13-4 5-5 5-9 10-3 5h-2v3h-2l-2 5-4 7h-2l-1 5-6 9-13 30-6 20-6 28h-2l-1 11-1 9-1 24-1 11h2v5l-1 1-57 5-62 5-171 14h-16v-2h-2l-7-34-7-25-7-18-5-12-1-4h-2l-3-6-1-4h-2v-3h-2v-3h-2l-3-5v-2l-3-1-2-4-18-18-5-3v-2l-5-2v-2l-4-1v-2h-3v-2h-3v-2h-3v-2l-4-1-6-3v-2l-5-1-19-9-27-9-15-4 1 13 6 33 8 40 4 16 1 13-1 1-13 1-14-1-23-6-26-10-5-1-5 4 2-4 4-5-18-11-13-12-11-14-9-15-6-15-5-21-1-12v-16l2-17 4-14 5-12 9-16 11-15 11-12 10-9 13-8 14-7 15-5-1-13-12-65-12-66-2-10v-7h18l22-2 3-11 11-59 5-25 4-10 9-10 9-6 13-3h12l5-4 11-14 7-9 9-10 11-11 8-7 14-12 21-14 19-11 23-10 18-6 24-6z" fill="#5391C0"/>
<path transform="translate(738,1361)" d="m0 0h33l22 2 15 4 18 8 11 6 14 10 10 9 16 16 10 13 10 16 9 19 6 20 2 13 1 16-1 17-5 27-6 18-8 20h103v75l-1 21-3 19-5 24-2 21-4 78-2 48-1 10v10l5 8 30 32 26 26 7 8 12 13 10 11 2 4-1 23-1 22h-286v-53l2-108 1-21 1-39 2-4v-24l-1-16v-23l-43 1v28l-1 11v21l3 8v54l1 2 2 107 1 34v22h-285l-1-7-3-34 2-7 7-9 8-7 8-9 9-11 34-34 7-8 14-14 3-6-1-21-1-33-1-13-1-39-2-20v-6l1-4-3-5-6-3-8-15-6-16-5-24-2-16-1-30v-63l1 2 5-1h26l73 1-6-16-7-19-4-14-3-21v-22l3-22 5-17 6-15 10-18 10-13 12-14 11-11 15-11 19-10 15-6 15-4z" fill="#5392C1"/>
<path transform="translate(489,1298)" d="m0 0h7l8 5 1 3 1 10 4 20 2 6 6 1 16 3 9 3 10 5 3 3 4 10 4 9 3 2v2l5 1 7 8 3 4 3 6 5 6 2 9 3 7 2 10 5 6 2 6 2 22 1 13-4 21v30l7 36 1 1 2 17v6l-4 5h-83l-8 1-5-25-10-42-9-38-5-20v-2l-7 4-8 11-2 4 2 11 2 13v15l-3 17-7 16-10 15-7 8-15 10-11 7-4 4-5 25-6 47v7l3 8 5 5 7 6 9 12 5 6 3 2 10 1 20 6 19 10 9 7 10 9 10 13 9 16 8 22 3 16v23l-4 21-7 19-9 17-10 13-8 8-11 9-4 4-5-2-9-12-14-21-10-16-1-6 9-10 8-10 5-16 1-4v-8l-4-13-6-10-9-10-5-3-3 1-6 11-10 13-6 7-11 8-12 6-10 3-7 1h-29l-13-4-12-5h-4l-3 12v11l4 12 7 10 10 7 10 6 10 3 8 3 1 2 1 24v30l-2 8-3 3h-13l-14-1-13-4-16-8-12-9-14-12-9-10-12-19-7-16-4-16-2-13v-17l3-18 6-18 9-17 11-14 3-8 1-15 4-11v-10l-8-18-3-12v-27l5-43 5-32 7-30 2-8-1-10-5-19-1-18 2-15 5-15 6-11 9-11 15-15 14-9 10-6 9-10 12-17 11-13 8-10 6-8 2-3 12 16 11 11 13 10 14 8 11 5 7 2 14 1-5-21-8-36-2-13v-22l3-10 6-11 11-9z" fill="#374E63"/>
<path transform="translate(738,1361)" d="m0 0h33l22 2 15 4 18 8 11 6 14 10 10 9 16 16 10 13 10 16 9 19 6 20 2 13 1 16-1 17-5 27-6 18-8 20h103v75l-1 5h-475l-2 4-1-22v-63l1 2 5-1h26l73 1-6-16-7-19-4-14-3-21v-22l3-22 5-17 6-15 10-18 10-13 12-14 11-11 15-11 19-10 15-6 15-4z" fill="#374E63"/>
<path transform="translate(746,597)" d="m0 0 43 2 26 3 23 5 30 10 18 8 19 10 19 12 14 10 12 11 4 5 7 5 1 3-10 5-10 9-7 9-4 11 1 14 6 20 14 37 4 11v3l-15 2-236 20-96 8-33 3h-16l2-11 5-24 7-36v-10l-8-16-9-10-9-5-13-5 6-8 10-13 9-11 15-15 8-7 14-12 21-14 19-11 23-10 18-6 24-6z" fill="#B6CAD8"/>
<path transform="translate(1369,1391)" d="m0 0 23 1 22 3 15 5 17 9 10 8 12 11 10 13 1 7-16 11-25 17-12 7-4-2-10-10-11-7-6-2h-14l-24 5-9 6-11 9 4 4 18 11 9 7 7 8 8 14 5 12 2 11v25l-3 14-7 14-1 3 15 4h11l11-4 12-9 7-10 4-8 5-18 2-2h53l11 2 2 4-1 18-4 17-6 15-8 14-10 12-8 7-12 10-15 9-16 7-15 4-11 1h-25l-16-2-15-6-17-9-13-11-7-4h-7l-16 6-15 5-9 1h-13l-14-3-39-14-34-15-23-11-20-10 4-3 15-9 11-7 5-2v-2l8-7 7-8 8-13 7-14 3-12 3-28 3-7 15 8 21 10h7l10-9 9-6 5-3 2-8 2-12 6-17 9-16 7-9 9-10 8-7 17-12 16-7 14-3z" fill="#467BA3"/>
<path transform="translate(769,900)" d="m0 0h20l13 2 24 5 16 8 9 6 11 8 10 9 12 14 10 16 9 19 4 15 2 15v22l-3 15-5 15-10 19-9 12-12 14-14 14-13 9-16 8-13 3-12 1h-38l-15-3-14-4-16-8-13-8-13-10-7-7-12-17-6-10-7-17-3-13-1-8v-38l3-18 7-18 11-18 10-13 10-10 14-10 10-6 24-9 13-3z" fill="#467BA3"/>
<path transform="translate(683,1788)" d="m0 0h24l14 4 8 5 8 9v2h2l4 7 3 9 2 5v54l1 2 2 107 1 34v22h-285l-1-7-3-34 2-7 7-9 8-7 8-9 9-11 34-34 7-8 14-14 2-4 94-1v-67l2-14 8-16 8-9 11-7z" fill="#374E63"/>
<path transform="translate(823,1788)" d="m0 0h20l12 3 10 5 10 9 6 9 5 13 1 5 1 70 1 2h81l12 1 7 8 9 10 7 7 7 8 29 29 7 8 12 13 10 11 2 4-1 23-1 22h-286v-53l2-108 1-21 1-39 2-4 1-18 2 1 1 5 9-12 8-7 7-3z" fill="#374E63"/>
<path transform="translate(353,1680)" d="m0 0h14l19 2 9 1 9-1 4 2 4 8 11 9 9 12 5 6 3 2 10 1 20 6 19 10 9 7 10 9 10 13 9 16 8 22 3 16v23l-4 21-7 19-9 17-10 13-8 8-11 9-4 4-5-2-9-12-14-21-10-16-1-6 9-10 8-10 5-16 1-4v-8l-4-13-6-10-9-10-5-3-3 1-6 11-10 13-6 7-11 8-12 6-10 3-7 1h-29l-13-4-12-5h-4l-3 12v11l4 12 7 10 10 7 10 6 10 3 8 3 1 2 1 24v30l-2 8-3 3h-13l-14-1-13-4-16-8-12-9-14-12-9-10-12-19-7-16-4-16-2-13v-17l3-18 6-18 9-17 11-14 3-8 1-15 4-11v-10l-1-4h4l2-4h2l2-4 7-9 9-10 13-9 10-5 14-4z" fill="#5392C1"/>
<path transform="translate(482,1140)" d="m0 0 19 5 24 8 24 11v2l6 2 4 2v2h3v2h3v2h3v2l4 1 3 3 2 1v2l5 2 14 14 6 7 6 8v2h2v3h2v3h2l4 8v2h2l5 10 6 16 7 21 7 30 3 16v3l-12 2-46 4-48 3h-21l-3-5-10-40-16 2-12 6-8 9-7 15-1 5v22l4 23 8 34 2 7v6h-14l-14-5-15-8-13-10-10-9-7-7-9-12v-2h-2l-6-16-4-17v-33l3-14 6-16 9-15 9-11 10-9 5 1 26 10 23 6 20 1 7-1-1-13-7-30-8-41-4-24z" fill="#374E63"/>
<path transform="translate(489,1298)" d="m0 0h7l8 5 1 3 1 10 4 20 2 6 6 1 16 3 9 3 10 5 3 3 4 10 4 9 3 2v2l5 1 7 8 3 4 3 6 5 6 2 9 3 7 2 10 5 6 2 6 2 22 1 13-4 21v30l7 36 1 1 2 17v6l-4 5h-83l-8 1-5-25-10-42-9-38-5-20v-2l-7 4-8 11-2 2-8-10-8-11-9-10-14-10-15-7-13-4-12-1h-45l6-7 12-17 8-10 14-17 6-8 2-3 12 16 11 11 13 10 14 8 11 5 7 2 14 1-5-21-8-36-2-13v-22l3-10 6-11 11-9z" fill="#467BA3"/>
<path transform="translate(1084,1063)" d="m0 0h3v44l-1 45-1 17v39l-3 4v12l2 4 11 7 10 9 11 13 8 13 8 18 3 11 1 8v20l-2 17-4 14-9 19-9 12-7 7-8 7-5 7-9 4-8 4-22 6h-12v-7l7-33 6-29 1-7v-23l-3-9-6-8-5-5-8-6-2-1h-9l-25 4-27 3h-12l-1-1v-45l4-24 7-28 7-19 11-24 5-7 1-3h2l1-4 5-8h2v-3h2l2-5 5-6 4-4 4-5 20-20 6-4 4-4h2l2-4 3-1 8-8 3-1 1-2h3v-2l7-4 3-1v-2z" fill="#374E63"/>
<path transform="translate(1369,1391)" d="m0 0 23 1 22 3 15 5 17 9 10 8 12 11 10 13 1 7-16 11-25 17-12 7-4-2-10-10-11-7-6-2h-14l-24 5-9 6-11 9 4 4 18 11 9 7 7 8 8 14 5 12 2 11v25h-1l-1-10-3 1-1 5-6 5-11 5-1 4-10 6-7 3-22 3-16-2-16-1-35-1-15-3-9-4v-2h-2l-6-10-2-6v-15l5-23 5-15-1-2 6-2 8-7 8-6 7-4 2-8 2-12 6-17 9-16 7-9 9-10 8-7 17-12 16-7 14-3z" fill="#5392C1"/>
<path transform="translate(1094,1416)" d="m0 0 29 1 17 4 16 8 10 8 8 7 9 12 7 17 5 16 2 5-2 6-3 28-3 12-8 16-7 11-9 10-5 5h-2v2l-11 7-17 10-4 3-8-1-9-2-4 1h-20l-15-5-16-9-13-12-11-15-8-14-7-17v-7l6-28 10-36 4-11 8-9 16-10 10-5 21-7z" fill="#374E63"/>
<path transform="translate(762,941)" d="m0 0h29l13 2 18 6 11 6 10 9 7 8 8 13 5 14 2 9 1 14v15l-2 14-5 12-6 10-8 10-10 10-13 9-13 6-15 4h-13l-19-3-16-5-16-8-11-8-9-10-7-11-5-15-3-18v-28l4-13 7-14 7-10 10-11 10-7 12-6 11-3z" fill="#FFC709"/>
<path transform="translate(1016,1363)" d="m0 0h7l5 5 1 3 4 2 2 13 2 1 1 3v21l-1 4 3 1-1 10 5-1h9v-2l22-6 18-9h2l3 5 4 3-16 3-22 8-15 9-9 7-5 7-7 23-9 35-4 21-2 4-10 44-4 18-25 1h-70l-9-1 1-6 9-22 5-19 3-18 1-19-2-22-5-19-4-11 1-8 2-8 3-5 7-3 21-4 10-2h4v-2l9-4 4-1v-2h2l2-4 6-3 3-6h5v-2h2v-5l4-2h3l1-5 5-3 2-8 3-1 1-5 2-3 7-3 2-2z" fill="#457AA2"/>
<path transform="translate(522,1674)" d="m0 0h393l82 1v16l-3 19-5 24-2 21-4 78-2 48-1 10v10l1 4h-92l-2-3-1-70-4-14-6-11-8-8-10-6-9-3-6-1h-20l-10 3-6 4-8 9-5 8h-1l-1-7-2-7-1-16v-23l31-1 154-1-1-12 1-16h-2l-2-12-1-23-3-7-7-3-9-2-23-2-28-1-69-1h-40l-27 1h-19l-31-1h-70l-83 1-28 1-10-1v11l-2-4v-8z" fill="#467BA3"/>
<path transform="translate(760,720)" d="m0 0 25 1 25 5 18 6 16 8 11 7 13 10 17 17 13 17 7 10v4l-247 21-26 2h-21l-1-4 8-15 15-23 9-12 9-10 10-9 16-11 21-11 21-7 19-4z" fill="#FCFCFC"/>
<path transform="translate(758,1426)" d="m0 0h6l16 10 14 10 18 13 13 10 13 11 3 5-2 11-10 35-14 43-6 9-5 2-10 1h-71l-9-3-7-9-6-16-14-40-8-26 1-8 4-6 11-9 18-13 14-10 16-11 13-8z" fill="#F86796"/>
<path transform="translate(738,1758)" d="m0 0 27 1v1l-19 1v28l-2 27-5-5v-3h-2l-6-8-6-5-10-4-8-2h-24l-10 4-10 8-7 10-5 11-2 14-1 67-2 1h-91v-11l-1-12-1-33-1-13-1-39-2-20v-6l1-4v-5l3-1 40-1z" fill="#467BA3"/>
<path transform="translate(1091,1006)" d="m0 0 10 2 18 8 12 9 11 12v2h2v2h2l11 11v4l5 2 2 2 9 1 2-4 3-1 4-8h2l1-2 7 4h3l7 10 4 10v24l-3 16-6 18-9 17-12 16-11 12-10 9-20 12-14 6-16 5-20 3-1-13v-26l1-17 2-89-3-1 3-3 2-28 1-19z" fill="#467BA3"/>
<path transform="translate(1369,1391)" d="m0 0 23 1 22 3 15 5 17 9 10 8 12 11 10 13 1 7-16 11-25 17-12 7-4-2-10-10-11-7-6-2h-14l-24 5-9 6-11 9 1 3-16-3h-19l-26 3-11 2 2-14 6-17 9-16 7-9 9-10 8-7 17-12 16-7 14-3z" fill="#B5C9D7"/>
<path transform="translate(444,1721)" d="m0 0 17 4 13 5 15 8 9 7 10 9 10 13 9 16 8 22 3 16v23l-4 21-7 19-9 17-10 13-8 8-11 9-4 4-5-2-9-12-14-21-10-16-1-6 9-10 8-10 5-16 1-4v-8l-4-13-6-10-9-10-5-3h-3l2-9 4-21v-12l-3-14-4-16z" fill="#B6CAD8"/>
<path transform="translate(879,1197)" d="m0 0 7 1 14 7 7 8 2 1v3h2l5 13 1 5v7l-2 10-5 10-13 13-9 5-13 4-26 3-59 5-44 4-14 1h-22l-13-5-9-7-7-8-5-8-4-13v-13l2-10 5-12 6-6 10-4 5-4h3l2 17 7 14 8 6 5 2 6 1h26l12-1 5-1h17l7-2h16l3-1 21-1 17-3 10-5 8-9 4-10 2-9z" fill="#374E63"/>
<path transform="translate(295,1555)" d="m0 0 4 5 11 14 10 11 13 9 16 8 12 3 8 1h20l20-3h9l-1 9-5 30-4 33v9l-5-1-9 1-14-2-13-1h-14l-16 4-11 5-11 7-8 7-9 11-5 7h-2l-2 5-5-2-6-13-3-12v-27l5-43 5-32 7-30z" fill="#467BA3"/>
<path transform="translate(280,1770)" d="m0 0h1l2 10 8 16 9 15 9 10 11 11 4 2-3 3-2 10v11l4 12 7 10 10 7 10 6 10 3 8 3 1 2 1 24v30l-2 8-3 3h-13l-14-1-13-4-16-8-12-9-14-12-9-10-12-19-7-16-4-16-2-13v-17l3-18 6-18 9-17 11-14z" fill="#B6CAD8"/>
<path transform="translate(1446,1558)" d="m0 0h53l11 2 2 4-1 18-4 17-6 15-8 14-10 12-8 7-12 10-15 9-16 7-15 4-11 1h-25l-16-2-15-6-17-9-13-11 4-3 16-8 13-8 9-7 9-8 7-8 3-2 13 3h11l11-4 12-9 7-10 4-8 5-18z" fill="#B5C9D7"/>
<path transform="translate(534,716)" d="m0 0 7 1 11 5 6 4 7 7 6 10 4 9v10l-11 56-3 12-2 3-18 3-21 2-21 1h-25l-1-5 1-4v-15l2-14 1-1 1-11 1-13 5-26 5-14 9-10 9-6 13-3h12z" fill="#467BA3"/>
<path transform="translate(460,1055)" d="m0 0 3 1 4 18 6 28 5 26 3 10 17 5-4 1-11-3 1 13 6 33 8 40 4 16 1 13-1 1-13 1-14-1-23-6-26-10 3-1 31 11 13 3h27l-4-15-3-23-3-5-12-3-14-6-17-10-15-11-7-7-7-10-5-12-2-11v-19l4-18 5-12 9-13 8-8 19-14z" fill="#457AA2"/>
<path transform="translate(858,1191)" d="m0 0h12l6 3 2 3 1 10-2 10-5 10-7 7-10 5-17 3-21 1-3 1h-16l-7 2h-21l-1 1-12 1h-26l-9-2-9-6-4-5-5-11-1-12 2-7 9-2 83-7z" fill="#B6CAD8"/>
<path transform="translate(961,679)" d="m0 0h20l15 3 10 5 7 7 8 16 21 62 5 16v5l-30 3h-22l-13-1-8-4-5-4-1-4v-12l-4-8-1-3-2-1v-5l-2-3v-7l1-1v-13l1-14v-11l2-2 2-6v-14z" fill="#467BA3"/>
<path transform="translate(1197,1493)" d="m0 0 5 3-1 6-3 4-4 27-6 22-2 12 3-1 10 5 13 8 7 4 4 6 4 1 6 10 7 10 8 9v2l4 2 10 7 8 4 19 8 9 4-1 3-15 6-12 3h-17l-14-3-39-14-34-15-23-11-20-10 4-3 15-9 11-7 5-2v-2l8-7 7-8 8-13 7-14 3-12 3-28z" fill="#3F6D92"/>
<path transform="translate(983,967)" d="m0 0h13l13 3 12 7 10 10 6 10 3 9 1 6v8l-4 12-8 11-10 8-12 6-5 1h-21l-16-8-10-9-7-9-3-15v-10l5-14 9-13 8-7 8-4z" fill="#4C84AD"/>
<path transform="translate(361,1472)" d="m0 0h20l13 5 11 10 7 10 4 8 1 6v13l-4 13-7 11-7 6-12 6-14 3-15-1-12-4-8-6-9-10-4-10-1-4v-20l3-10 7-10 2-3h2v-2l11-7z" fill="#467BA3"/>
<path transform="translate(561 1e3)" d="m0 0 14 1 14 5 11 8 9 10 6 11 1 4v13l-5 12-8 11-9 9-11 7-4 1h-21l-14-7-10-8-8-10-4-10-1-6v-12l4-13 7-11 4-5 8-6 9-3z" fill="#4B83AC"/>
<path transform="translate(1094,1475)" d="m0 0h18l12 4 10 6 5 5 6 9 2 6v20l-5 15-6 10-10 8-11 5-9 2h-17l-11-4-10-9-8-13-3-9v-16l3-10 6-11 8-9 16-8z" fill="#3F6D92"/>
<path transform="translate(841,956)" d="m0 0 8 1 3 2 1-3 4 2 7 1 3 3 6 2v-2l8 2 7 5 6-1 9 19 4 15 2 15v22l-3 15-5 15-8 15h-2l-1 2h-2l-2 5h-2v3h-2l-1 4-4-1-3 9-3 2-10 2 1-4-8 2 2-5 3-4 3-10h3l3-6-2 1 1-5 4-8-1-6-2-1-1-9-1-2-3-2 2-14v-15l-1-14-4-16-7-14-9-12-6-7h2z" fill="#4C84AD"/>
<path transform="translate(420,1772)" d="m0 0 5 1 3 1 3-1 3 3 4 7 4 5-3 13-12 17-7 8-11 8-12 6-10 3-7 1h-29l-1-7h-2l-2-3-7-1v2l-5-2 2-3 2-5 2-4v-3h2v-5l7-14 7-9 14-9 4-2h14l21-4 8-2z" fill="#4C84AD"/>
<path transform="translate(791,991)" d="m0 0h12l12 3 7 6 6 11 2 9v13l-5 10-8 9-12 6-13 1-13-4-10-9-5-8-2-6v-15l5-13 8-9 8-3z" fill="#FCFCFC"/>
<path transform="translate(1093,1408)" d="m0 0h2l3 5 4 3-16 3-22 8-15 9-9 7-5 7-7 23-9 35-4 21-2 4-10 44-4 18-25 1h-70l-9-1 1-3v2l25-1 24-4 10-5 4-6 3-1 1-5v-6l8-9 4-4 2-1 2-4 5-3 4-8 4-3h2l3-9 3-4 2-6h3l2-6 6-12 7-20 1-6 2-5v-7l8-13 5-3 2-4 10-5 14-9 1-1h-10l4-2 18-5 8-4z" fill="#3F6D92"/>
<path transform="translate(1225,1555)" d="m0 0h1l2 16 5 9 1 3h2l3 3 16 4 5 1 35 1 16 1 16 2 22-3 12-6 5-2 1-5 11-5 6-5 1-4 2-1 1-7h1v24l-5 14-5 8 1 4-7 7-7 8-10 8-4 2 1-10-1-7h-7v2l-10 1-10-2-11-3-23-4-13-1h-16l-5-2-12-3-8-6-8-11-3-9-1-6z" fill="#4C84AD"/>
<path transform="translate(960,681)" d="m0 0 5 1 1 1v15l-3 6-1 1v15l-1 11v12l-1 1v7l2 3-1 5 3 1 4 10 1 5v8l2 5 8 5 3 1 25 2v1l-33 3-17-1v-2h-2l-11-30-9-24-4-14-1-14 4-11 7-9 8-8 8-5z" fill="#4C84AD"/>
<path transform="translate(522,1674)" d="m0 0h393l82 1v6l-3 4-12 3-15-5-12-2-15-1h-41l-69-1h-40l-27 1h-19l-31-1h-70l-83 1-28 1-10-1v11l-2-4v-8z" fill="#477CA4"/>
<path transform="translate(414,1790)" d="m0 0h6l7 5 9 1 3 3-2 5-10 14-7 8-11 8-12 6-10 3-7 1h-13l-4-2-1-18 4-8 5-4h2l1-3h2l1-4 3-3 12-5 16-4z" fill="#477CA3"/>
<path transform="translate(1103,1480)" d="m0 0 10 1 9 4 5 3 5 13 1 4-2 7-5 1-1-2 1-3-6 3-1 3 1 7h-10l-12 6h-2v3l-14 3h-4v2l-6-1-8-8-2-10 3-9 6-9 3-5 6-4 5-4 7-3z" fill="#467BA3"/>
<path transform="translate(834,1813)" d="m0 0h13l6 3 7 8 3 7v12l-6 12-7 5-3 1h-14l-9-3-7-6-4-8v-11l4-9 8-8z" fill="#457AA2"/>
<path transform="translate(561 1e3)" d="m0 0 14 1 14 5 11 8 9 10 6 11 1 4v13l-5 12-8 11-9 9-4-1 1-2h2l-1-4 3-3-1-5-4 3-6-2-2 3h-2l-3-6 1-5 4-1 4-2 2-4h2l-1-7-1-2-3-1-2-9 2-3-5-1v-5h2l-1-8 3-5-5-4-6-3-4-1-3-3h-8l-14 5-7 4 2-4 5-4 9-3z" fill="#467BA3"/>
<path transform="translate(693,1814)" d="m0 0h11l10 5 5 6 2 6v13l-4 8-6 5-10 4h-15l-7-4-5-8-1-3v-13l7-12 9-6z" fill="#457AA2"/>
<path transform="translate(361,1472)" d="m0 0h20l13 5 11 10 7 10 4 8 1 6v13l-4 13-7 11-7 6-12 6-14 3-15-1-12-4-8-6-9-10-4-10-1-4v-20l3-10 7-10 2-3h2v-2l11-7zm-3 4-14 7-10 8-7 12-2 18 2 14 7 11 7 6 8 4 13 2 11-3 9-5 5-2 6-5 4-6v-7l4-11 2-2 1-12-3-12-7-9-8-5-8-3z" fill="#3F6D92"/>
<path transform="translate(909,1679)" d="m0 0h31l22 2 11 3 10 3 11-3 3-3v10l-3 19-5 24-2 21-3-3h-2l-2 7h-6l-1-13 1-16h-2l-2-12-1-23-3-7-7-3-9-2-23-2-18-1z" fill="#4D85AE"/>
<path transform="translate(1144,1041)" d="m0 0h2l11 11v4l5 2 2 2 9 1 2-4 3-1 4-8h2l1-2 7 4h3l7 10 4 10v24l-2 2-4-13-8-6-2-3-1 4-5 1-6 7-6 5-7 3-4 3h-3v-5h2l-3-13-1-11-6-16-6-9z" fill="#4C84AD"/>
<path transform="translate(821,1125)" d="m0 0h2l4 6 4 1v2l4 1 4 4-12 6-13 3-12 1h-38l-15-3-14-4v-2h8l7 1 1-5-2-3 7-1-1-3h7v-2h6l11 4 17 1 10-3 10-2z" fill="#4C84AD"/>
<path transform="translate(983,967)" d="m0 0h13l13 3 12 7 10 10 6 10 3 9 1 6v8l-4 12-8 11-10 8-6-1 4-5h2v-10l-4-1 1-2 2-1 2-5 5-5 3-2-2-5h2v-6l-5-1v-2h-2l-2-5-1-8-8-6-5-6-7-4-10-2-13 1-11 7-4 4h-2l-2 4-5 6-1-3 9-13 8-7 8-4z" fill="#467BA3"/>
<path transform="translate(460,1055)" d="m0 0 3 1 4 18 6 28v5l-2-4-2-7h-15l-2 4-6 1-4-2h-12l-8 2-2-1-6 18-2 23h-1v-19l4-18 5-12 9-13 8-8 19-14z" fill="#4C84AD"/>
<path transform="translate(295,1555)" d="m0 0 4 5 11 14 10 11 13 9 16 8 12 3 8 1h20l20-3h9l-1 9-3 7-2 2-7 1v-3h-10l-5-2h-7l-5-2-7-2-14-2-7-3-22-11-14-9-6-5-3-5-3-6v-2h-2v-2h-3l-2-6z" fill="#3F6D92"/>
<path transform="translate(522,1674)" d="m0 0h393l82 1v2l-7 1h-22l-63-1h-382l-1 14-2-4v-8z" fill="#3F6D92"/>
<path transform="translate(659,992)" d="m0 0 3 4 10-2 3-2v2h2l1 15-1 10h1v10h-2v10l-3 8-5-3-4-2-3-6v-2l-4 1v-29z" fill="#4C84AD"/>
<path transform="translate(534,716)" d="m0 0 7 1 7 3 1 7 1 3-3 4h-7l-1 1h-21l-3-3h-11v-2l-6 3h-3v2l-6 3 2-4 7-8 9-6 13-3h12z" fill="#4C84AD"/>
<path transform="translate(477,800)" d="m0 0h1l1 12 3 1v2l4 2 3 15 5 2h9l6-3 4-1h14l6-1 4 2h18l4 2-18 3-21 2-21 1h-25l-1-5 1-4v-15l2-14z" fill="#4C84AD"/>
<path transform="translate(960,681)" d="m0 0h4l-1 4-5 5-5 6-4 9-5 10-4 14-2 9-2 5-2-3-3-11-1-14 4-11 7-9 8-8 8-5z" fill="#5392C1"/>
<path transform="translate(836,1676)" d="m0 0h69l66 1h26l-1 5-2 3-12 3-15-5-12-2-15-1h-41l-55-1-8-1z" fill="#467BA4"/>
<path transform="translate(371,1428)" d="m0 0h24l18 4 16 6 10 5 8 3 2 4h2l4 5 11 8 10 7 2 2v6l-4 5-2 2-8-10-8-11-9-10-14-10-15-7-13-4-12-1h-45l3-2 16-1z" fill="#3F6D92"/>
<path transform="translate(735,1779)" d="m0 0h5l1 2h3l1 10-1 25-5-5v-3h-2l-6-8-6-5-10-4-8-2-24-1v-1l16-1h11l6-2 16-3z" fill="#406E93"/>
<path transform="translate(1091,1006)" d="m0 0 10 2-3 1 8 8-2 2h6l2 4-5 5-6-6-2 8v7l-3 11-7 11h-1l1-28 1-19z" fill="#4C84AD"/>
<path transform="translate(395,1370)" d="m0 0 4 4 9 12 11 11 13 10 14 8 11 5 7 2 14 1v-5h1l1 6-3 2h-13l-12-3-12-5-16-8v-2l-4-2-8-9-5-5-9-10-3-5z" fill="#3F6D92"/>
<path transform="translate(834,1813)" d="m0 0h13l6 3 7 8 3 7v12l-6 12-4 2 4-8-1-10-2-9-5-10v-2l-12-1-11 6-8 6h-2l1 12h-2v5l-2-2v-11l4-9 8-8z" fill="#3F6D92"/>
<path transform="translate(693,1814)" d="m0 0h11l10 5 5 6 2 6v13l-4 8-6 5-2-1 3-2 1-8v-18l-2-1v-5l-4-3-11-1-9 4-8 5-4 8-1 11h-1v-13l7-12 9-6z" fill="#3F6D92"/>
<path transform="translate(571,745)" d="m0 0 3 4 1 3v10l-4 20-1-3-5-2-6-15v-11l4-3 8 1z" fill="#4C85AE"/>
<path transform="translate(681,1277)" d="m0 0 5 5 8 7 10 5 6 2h22l37-3 54-5 46-4 17-4 5-1-4 3-15 4-23 3-38 3-51 5-16 1h-36l-12-5-9-7-6-7z" fill="#43759B"/>
<path transform="translate(739,1676)" d="m0 0h97v2l4 1h-50l-27 1h-19l-27-1v-1l21-1z" fill="#497FA8"/>
<path transform="translate(1086,1183)" d="m0 0 4 2 2 2v3l5 1 5 6-2 2 7 1 5-1h9l-3 2-17 5-15 2-1-19z" fill="#4C84AD"/>
<path transform="translate(493,1208)" d="m0 0h1l6 27 3 15v6l-1 1-13 1-14-1-23-6-26-10 3-1 31 11 13 3h27l-4-15-3-23z" fill="#43769C"/>
<path transform="translate(1093,1408)" d="m0 0h2l3 5 4 3-16 3-22 8-15 9-4 3-2-1 9-7 10-6 1-1h-10l4-2 18-5 8-4z" fill="#3F6D92"/>
<path transform="translate(648,1827)" d="m0 0h1l-1 76-2 1h-91l1-3 83 1h8v-67z" fill="#3F6D92"/>
<path transform="translate(523,1676)" d="m0 0h45l1 1 74 1v1l-83 1-28 1-10-1z" fill="#497FA8"/>
<path transform="translate(1347,1632)" d="m0 0h5l-5 4-16 9-9 4-5-1-4-3 5-3 4-3 13-4z" fill="#4D86AF"/>
<path transform="translate(769,900)" d="m0 0h20l13 2 24 5 16 8 1 2-6-2-10-4-23-5-23-3h-27v-1z" fill="#4C84AD"/>
<path transform="translate(416,1157)" d="m0 0 3 4 6 9 1 3h2v2l4 2 12 10 18 11 15 6 13 4 2 4-5-2-9-2-14-6-17-10-15-11-7-7-7-10-2-4z" fill="#4C84AD"/>
<path transform="translate(960,1899)" d="m0 0h5l7 2 9 3v1l-88-1v-1l59-2 7-1z" fill="#3F6D92"/>
<path transform="translate(522,1674)" d="m0 0h55l1 2-12 1h-43l-1 14-2-4v-8z" fill="#406E93"/>
<path transform="translate(888,1279)" d="m0 0 3 1-11 4-14 3-30 3-34 2h-12v-1l70-6 19-3z" fill="#42749A"/>
<path transform="translate(593,1759)" d="m0 0h40v1l-39 1-19 1-16 2h-6l-3 2v-5l3-1z" fill="#4C84AD"/>
<path transform="translate(866,991)" d="m0 0 2 1 4 15v17l-1-2h-2l-2-4-3-22z" fill="#5392C1"/>
<path transform="translate(856,980)" d="m0 0 4 1 3 6 3 3-1 9 2 10v25h-1l-2-26-4-16-4-9z" fill="#5E8CAE"/>
<path transform="translate(970,1801)" d="m0 0h6l-1 9 1 5h-4v-3l-5 1v-2h-4l2-4h2l-1-3z" fill="#3F6D92"/>
<path transform="translate(534,761)" d="m0 0 4 1 2 6-2 9h-2v2l-3-1-1-8v-6z" fill="#4C84AD"/>
<path transform="translate(1382,1587)" d="m0 0 3 1-1 7-2 4-4 1-3-2 1-7 2-3z" fill="#4B7EA5"/>
<path transform="translate(846,959)" d="m0 0h2l1 6h2l2 3v3h2l2 7-2 3-10-14-1-2 2-5z" fill="#5082A7"/>
<path transform="translate(958,1244)" d="m0 0h1l-1 13-1 33-1 1-1 8h-1l1-35z" fill="#43759C"/>
<path transform="translate(360,1110)" d="m0 0h2v34l-2 1-1-10v-16z" fill="#4B7DA3"/>
<path transform="translate(823,1288)" d="m0 0h14l-1 2-34 2h-12v-1z" fill="#417298"/>
<path transform="translate(502,1250)" d="m0 0h1v6l-1 1-13 1-11-2v-1l23-2z" fill="#4579A1"/>
<path transform="translate(482,760)" d="m0 0 2 3v11l-5 12-1-4z" fill="#568DB6"/>
<path transform="translate(298,1712)" d="m0 0v3l-5 7h-2l-2 5-5-2-3-7h2l1 4 6-2z" fill="#4C84AE"/>
<path transform="translate(1182,1150)" d="m0 0v3l-7 9-9 10-5 4 2-4 3-5 3-3 1-2 5-3z" fill="#6198C0"/>
<path transform="translate(519,717)" d="m0 0h6l2 2-19 3-1 2-4 2-3-1 7-5zm-21 9 2 1-7 6 2-4z" fill="#629AC3"/>
<path transform="translate(477,787)" d="m0 0 2 2-1 11-2 7-1 8-3 1z" fill="#5D95BE"/>
<path transform="translate(1086,1200)" d="m0 0 4 3 15 1-4 2-15 2z" fill="#5895C2"/>
<path transform="translate(1338,1638)" d="m0 0 2 2-16 8-6 1-1-2 16-6z" fill="#5492C0"/>
<path transform="translate(841,956)" d="m0 0 4 1 2 5-2 3-4-2-3-4h2z" fill="#598DB3"/>
<path transform="translate(1372,1612)" d="m0 0 2 1-8 9-10 8-2-1 11-10 5-5z" fill="#5392C1"/>
<path transform="translate(540,756)" d="m0 0 4 2v2l2 1v2l3 2-2 4-3-3-2-1-2-5z" fill="#4B83AC"/>
<path transform="translate(961,679)" d="m0 0h20l6 1v2l-25-1z" fill="#417096"/>
<path transform="translate(1235,1515)" d="m0 0 1 2-6 20-1 5h-1l1-11 2-10z" fill="#4C84AD"/>
<path transform="translate(821,1676)" d="m0 0h15v2l4 1h-9l-3-1h-7z" fill="#477DA6"/>
<path transform="translate(1095,1410)" d="m0 0 5 4 2 2h-14l3-3 4-1z" fill="#487CA3"/>
<path transform="translate(371,1401)" d="m0 0 2 3-2 4-3 1-7 9v-3z" fill="#5C92B9"/>
<path transform="translate(935,656)" d="m0 0 4 2 10 9 3 4-4-2-13-12z" fill="#FDFDFD"/>
<path transform="translate(828,950)" d="m0 0 4 1 2 1 2 5-5-2-5-4z" fill="#5E93BA"/>
</svg>
