<?xml version="1.0" encoding="UTF-8"?>
<svg version="1.1" viewBox="0 0 1200 1600" width="1280" height="1280" xmlns="http://www.w3.org/2000/svg">
<path transform="translate(576,412)" d="m0 0h53l32 3 29 6 36 12 27 12 18 10 15 10 16 13 14 12 15 14 12 13 13 17 10 15 9 16 9 19 10 30 5 22 4 32v27l7 8 9 9 7 11 7 14 4 11 2 10v29l-4 18-6 15-10 18 2 9 6 16 1 4v7l-6 12-6 5-3 1-17 1 13 26 12 20 10 13 11 13 14 15 2 4v8l-4 10-5 5-3 2-5 1-26 1h-55l10 11 8 15 3 14v67l-2 31-4 28-4 19-9 29-4 12v4l13 3 1 3-12 22-11 19-2 3-4-1-3-2h-7l-5 9-11 16-18 22-2 7v22l-1 9-1 33-2 36-2 34v12l4 16 9 19 9 12 9 8 16 10 17 8 7 3v17l-1 15-1 4h-185l-1-32-1-167-2-26h-93l-2 30-1 195h-185l-1-2-2-25v-7l3-4 19-7 14-9 9-7 5-4 9-13 8-17 4-15v-17l-2-35-1-27-1-7-1-35v-23l-6-9-7-7-13-17-11-15-6-10-3-1-8 4h-3l-10-18-12-21-3-7 9-3 6-1-6-20-8-26-5-26-3-24-2-25v-67l2-12 6-14 9-11 11-11-23 4-10 1-28 1h-36l-17-1-7-3-5-5-2-4v-8l3-10 6-9 11-12 12-15 12-19 5-13 2-12v-6l-9-10-11-14-8-16-4-13-3-21v-16l5-22 8-16 2-8-8-43-1-7v-39l4-26 6-25 8-22 11-23 11-18 13-19 12-14 11-13 11-12 8-7 11-9 15-11 17-11 21-12 19-9 27-10 30-8 27-5zm200 571-18 11-6 5-2 4v6l2 2 18-1 14-7 9-4 10-1-5-4-18-10zm-339 4-13 5-8 4v1h10l15-1 13 4 16 9 6 3-2-4-18-10-15-10z" fill="#B57B5C"/>
<path transform="translate(875,870)" d="m0 0h3v2h2l4 10 3 5v2h2l3 3 4 1 13 26 12 20 10 13 11 13 14 15 2 4v8l-4 10-5 5-3 2-5 1-26 1h-55l10 11 8 15 3 14v67l-2 31-4 28-4 19-9 29-4 12v4l13 3 1 3-12 22-11 19-2 3-4-1-3-2h-7l-5 9-11 16-18 22-2 7v22l-1 9-1 33-2 36-2 34v12l4 16 9 19 9 12 9 8 16 10 17 8 7 3v17l-1 15-1 4h-185l-1-32-1-167-2-26h-93l-2 30-1 195h-185l-1-2-2-25v-7l3-4 19-7 14-9 9-7 5-4 9-13 8-17 4-15v-17l-2-35-1-27-1-7-1-35v-23l-6-9-7-7-13-17-11-15-6-10-3-1-8 4h-3l-10-18-12-21-3-7 9-3 6-1-6-20-8-26-5-26-3-24-2-25v-67l2-12 6-14 9-11 11-11-23 4-10 1-28 1h-36l-17-1-7-3-5-5-2-4v-8l3-10 6-9 11-12 12-15 13-20 2 2 2 9h2l2 3 4 1v2l8 2h17l5-3 4-5 4-13 2-5 29 1 8 16 8 14 10 14 14 15 8 9v2l-16 7-2 1 23-1 13 4 16 9 6 3 5 2 3 2-2 24v18l4 16 6 13 8 11 9 10 8 7 11 7 14 8 19 8 22 6 10 2h48l17-3 23-7 16-7 21-13 12-11 8-8 9-14 6-15 2-9v-32l-3-15 18-2 14-7 9-4 8-1-22-13 2-4 10-9 8-7 12-12 12-16 12-21 8-20 6-18 16-4z" fill="#37AE79"/>
<path transform="translate(576,412)" d="m0 0h53l32 3 29 6 36 12 27 12 18 10 15 10 16 13 14 12 15 14 12 13 13 17 10 15 9 16 9 19 10 30 5 22 4 32v21l-1 6-15-8-17-8-9-2-2 51-1 14-3 12-4 6-7 6-10 4h-14l-9-3-9-8-4-8-2-11v-26l2-18h-27l-70-12h-11l-3 10 33 2 44 2 12 1 1 2 2 24-1 1h-26l-59-4-44-2-20-4-17-6-17-8-22-14-16-13-15-14-10-9-4 2-11 9-16 10-18 10-18 8-25 9-23 7-16 4v10l6 32 6 26v7l-5 12-7 7-8 4h-18l-14-4-6-10-7-21-9-45-1-3-6 1-12 7-12 11-12 12h-2l-3-9-7-40v-39l4-26 6-25 8-22 11-23 11-18 13-19 12-14 11-13 11-12 8-7 11-9 15-11 17-11 21-12 19-9 27-10 30-8 27-5z" fill="#414448"/>
<path transform="translate(793,1317)" d="m0 0 2 1 2 6 1 13-1 5v22l-1 9-1 33-2 36-2 34v12l4 16 9 19 9 12 9 8 16 10 17 8 7 3v17l-1 15-1 4h-185l-1-32-1-167-2-26h-93l-2 30-1 195h-185l-1-2-2-25v-7l3-4 19-7 14-9 9-7 5-4 9-13 8-17 4-15v-17l-2-35-1-27-1-7-1-35v-23l-4-7v-21h263z" fill="#5D62BA"/>
<path transform="translate(763,1255)" d="m0 0h27l11 1v15l6 2 20 11 5 3-1 5-7 11-10 14-12 14-4 4-3-14-2-3-81 1h-226l-37-1v20l-7-6-10-12-14-19-7-12v-2l23-14 3-2v-14l1-1z" fill="#414448"/>
<path transform="translate(596,513)" d="m0 0h51l27 2 25 4 24 6 20 7 18 8 17 10 11 9 17 17 8 9 3 7v8l-9-1-27-8-30-7-26-4-26-2h-108l-8 2-37 4-30 5-28 6-35 10-28 10-33 16-18 10-4 1-2-3v-10l4-10 11-16 8-10 7-9 12-11 17-12 21-12 23-11 27-9 32-8 24-4 25-3z" fill="#6C9DB9"/>
<path transform="translate(459,1487)" d="m0 0h116v113h-185l-1-2-2-25v-7l3-4 19-7 14-9 9-7 5-4 9-13 8-17z" fill="#B4C7D2"/>
<path transform="translate(676,1486)" d="m0 0 58 1h56l2 6 5 16 9 17 8 10 8 7 16 10 17 8 7 3v17l-1 15-1 4h-185v-113z" fill="#B3C6D1"/>
<path transform="translate(748 1e3)" d="m0 0 2 1 2 6-1 8-7 21-8 14-10 13-8 9-17 13-21 12-20 7-19 4-15 1h-25l-18-3-23-8-15-8-19-13-10-9-9-9v-3h3v-3h2l-5-17v-7l3-3 2-1h17l25 4 18 2h51l26-2 25-5 29-8 28-10z" fill="#9B664D"/>
<path transform="translate(875,870)" d="m0 0h3v2h2l4 10 3 5v2h2l3 3 4 1 13 26 12 20 10 13 11 13 14 15 2 4v8l-4 10-5 5-3 2-5 1-26 1h-47l-9-1-17-8-17-5h-24l-22-13 2-4 10-9 8-7 12-12 12-16 12-21 8-20 6-18 16-4z" fill="#414448"/>
<path transform="translate(484,1015)" d="m0 0 3 2 7 23 9 15 8 10 12 12 24 16 16 8 20 7 18 3h25l15-1 22-5 19-7 14-8 13-9 13-11 11-14 9-15 7-19 2-7 3 1 2 10v32l-4 15-8 16-8 10-14 14-15 10-14 8-14 6-21 6-17 3h-48l-26-6-21-8-17-9-5-4-7-4-12-11-8-9-6-9-6-13-4-16v-18l2-20z" fill="#D8DADA"/>
<path transform="translate(359,917)" d="m0 0 29 1 8 16 8 14 10 14 14 15 8 9v2l-16 7-22 8-9 2-22 4-10 1-28 1h-36l-17-1-7-3-5-5-2-4v-8l3-10 6-9 11-12 12-15 13-20 2 2 2 9h2l2 3 4 1v2l8 2h17l5-3 4-5 4-13z" fill="#424448"/>
<path transform="translate(334,725)" d="m0 0 5 1 6 28v10l-6 4-6 8-8 16-4 10-2 9v16l5 16 4 6v2l7 2 6-2 7 1 10 7 5 7 2 9-1 15-7 36-4 11-6 6-3 1h-17l-8-3v-2l-5-1-1-3h-2l-4-12 4-11 2-12v-6l-9-10-11-14-8-16-4-13-3-21v-16l5-22 8-16 2-8 1-3v2l8-7 14-14 14-9z" fill="#B67C5D"/>
<path transform="translate(863,677)" d="m0 0 7 1 23 11 10 6 7 8 9 9 7 11 7 14 4 11 2 10v29l-4 18-6 15-10 18 2 9 6 16 1 4v7l-6 12-6 5-3 1-21 1-3-2v-2h-2l-3-6-4-7-4-12-11-25-3-8v-11l2-5h2v-3l8-7 12-4 11-2 6-10-1-5 1-5-2-5-3-14-5-12-6-10-7-9v-2l-4-2-9-7-5-3-1-2v-30z" fill="#B67C5D"/>
<path transform="translate(710,753)" d="m0 0 17 1 10 3 10 6 9 9 6 9 5 13v24l-3 10-6 11-9 10-8 6-7 3-5 1h-19l-13-3-11-6-11-11-7-14-3-13v-13l4-14 8-14 8-9 12-6z" fill="#F8F8F9"/>
<path transform="translate(493,773)" d="m0 0h18l14 3 8 4 10 9 7 11 5 12 1 5v18l-4 12-7 12-9 10-9 6-10 4h-21l-15-5-9-6-5-4-6-10-5-12-2-9-1-13 4-15 9-14 10-10 9-5z" fill="#F7F8F9"/>
<path transform="translate(574,1408)" d="m0 0h1v79l-56 1-60-1-3-49 1-15 26 1h83l8-1z" fill="#B57C5D"/>
<path transform="translate(675,1417)" d="m0 0h1v7h106l11-1v19l-2 34-1 11-1 1h-58l-47-1-8-1-1-25z" fill="#B67C5D"/>
<path transform="translate(676,1513)" d="m0 0h1v48h173l-1-2 9 3 4 2v17l-1 15-1 4h-185z" fill="#DADBDB"/>
<path transform="translate(573,1532)" d="m0 0h1v68h-184l-1-2-2-25v-7l3-4 6-2h9l11 1 86 1h31l40 1z" fill="#DADBDB"/>
<path transform="translate(613,911)" d="m0 0h17l11 2 8 4 10 10 7 12 2 6v15l-4 10-7 11-8 8-8 5-7 2-9 1-11-1-13-4-7-5-7-8-5-8-3-14 1-14 4-11 7-9 7-6 8-4z" fill="#9B664D"/>
<path transform="translate(697,763)" d="m0 0h10l8 3 10 9 7 11 4 13v23l-4 12-10 13-7 4-9 1-7-1-11-8-7-11-5-16-1-7v-17l4-12 6-10 5-4z" fill="#42454B"/>
<path transform="translate(505,782)" d="m0 0h13l9 3 8 7 7 10 4 20v15l-4 13-4 8-8 8h-2v2l-3 1h-13l-10-5-8-8-7-14-2-9v-19l2-10 5-12 6-7z" fill="#42464C"/>
<path transform="translate(339,853)" d="m0 0h7l12 7 5 6 2 9-1 15-7 36-4 11-6 6-3 1h-17l-8-3v-2l-5-1-1-3h-2l-4-12 4-11 2-12v-6l-9-10-2-3 4 2 2 2 6-1 1-6 1-2h2l1-6 4-8 9-6z" fill="#DA9865"/>
<path transform="translate(602,827)" d="m0 0h29l12 4 8 7 4 5 2 6v7l-5 10-5 6-9 7-12 5-5 1h-19l-13-4-9-6-6-7-2-6v-10l4-9 7-8 9-5z" fill="#9B664D"/>
<path transform="translate(861,677)" d="m0 0 2 1-1 5v32l5 2 9 7 5 5 8 10 8 15 4 13 3 15-2 6 2 1-7 11-18 4-8 4-3 4h-2v3h-2l-3 16-4 1-3-3-2-8-2-22-1-35v-3l4-5 3-9 1-5 1-14 1-31 1-17z" fill="#9B664D"/>
<path transform="translate(883,803)" d="m0 0 11 1 4 4 6 12 6 16 2 2 7 3 8 22 1 4v7l-6 12-6 5-3 1-21 1-3-2v-2h-2l-3-6-4-7-4-12-11-25-3-8v-11l2-5h2v-3l8-7z" fill="#DA9866"/>
<path transform="translate(345,759)" d="m0 0h1l4 18 6 18 5 9 6 2-3 2 5 19 6 28 1 6v12l-2 2-6 1-2-1-3-10-5-5-10-7-7-1-8 2-5-3-6-11-4-13v-16l3-11 6-15 8-14 8-7h2z" fill="#9B664D"/>
<path transform="translate(525,684)" d="m0 0h5l1 4 1 21-16 5-64 16-26 6h-8l-1-3-1-22 1-2 26-7 21-5 57-12z" fill="#414448"/>
<path transform="translate(831,1235)" d="m0 0 14 1 14 7 6 1v2h2l1 5-3 9-14 25-4 6-4-1-3-2h-8l-14-8-17-9-1-2v-7l2-6 9-4 8-7 4-6 4-3z" fill="#239261"/>
<path transform="translate(517,772)" d="m0 0h12l7 3v2l4 2 1 3 4 2 6 8 5 15h2l4 11v8l-2 7-1 1 2 1-2 16-3 11-4 9-6 8h-2v2l-9 6-26 6h-14l-10-4-11-9-10-9-5-10 1-4 3-1 6 9 9 6 8 4 10 3h21l12-5 10-8 9-12 5-11 2-7v-18l-4-13-6-11-9-10-8-5-10-3-7-1v-1z" fill="#C38767"/>
<path transform="translate(393,1245)" d="m0 0 13 1 6 2-1 3 14 3 11 4v-2l2 1v14l-14 9-13 8-4-1-8 4h-3l-10-18-7-12v-5l2-3 5-3 2-3z" fill="#239361"/>
<path transform="translate(770,819)" d="m0 0 2 1v18l-3 13-7 8h-2v2l-8 6-7 3-6 1-18 1-14-1-14-4-6-4-7-8-3-3-1-9 2-2 8 8 14 7 10 2h19l10-3 9-6 7-7 8-14 2-6z" fill="#C38767"/>
<path transform="translate(800,1270)" d="m0 0 16 8 11 6 5 3-1 5-7 11-10 14-12 14-4 4-3-14-1-8 4-34z" fill="#9B664D"/>
<path transform="translate(437,1271)" d="m0 0 3 1 4 20 5 28v18l-7-6-10-12-14-19-7-12v-2l23-14z" fill="#9B664D"/>
<path transform="translate(459,777)" d="m0 0h23l-4 4-8 7-6 7-6 10-3 12h-4l-6-11-8-10-7-8-6-6v-3z" fill="#424449"/>
<path transform="translate(785,748)" d="m0 0h2l-2 6-8 13-8 17-2 5-3-1-6-12-11-12-10-6-9-3v-1l21-3z" fill="#42454A"/>
<path transform="translate(695,1089)" d="m0 0 2 1-13 8-18 7-15 4-10 2-15 1h-25l-18-3-23-8-2-2 8 1 8-1 28 6 23 2 22-1 20-4 16-6z" fill="#B67C5D"/>
<path transform="translate(690,683)" d="m0 0h11l47 8v3l-4 1h-26l-14-3-7 2h-10l1-8z" fill="#B37A5B"/>
<path transform="translate(665,1140)" d="m0 0h8l-2 4-21 7-13-1-25 2-16-2-9-3v-1l6-1h48l17-3z" fill="#279766"/>
<path transform="translate(798,1282)" d="m0 0h1l-1 28 4 7 3 3 5-4 7-8 5-6 2 1-10 14-12 14-4 4-3-14-1-8 3-28z" fill="#B67D5E"/>
<path transform="translate(704,691)" d="m0 0 14 3h26l5-2 11 1 18 3-1 5-1-2-40-1-47-3v-1l8-1z" fill="#9B664D"/>
<path transform="translate(915,778)" d="m0 0 7 1 2 6-1 4-1 3h-2v4l-9 1-3-8-2-3 1-7 7 2z" fill="#9B664D"/>
<path transform="translate(517,772)" d="m0 0h12l7 3v2l4 2 1 3 4 2 6 8 3 10v5l-3-3-6-11-9-10-8-5-10-3-7-1v-1z" fill="#C48767"/>
<path transform="translate(691,1093)" d="m0 0 2 1-14 8-15 6-19 5-21 1-30-1-18-5-2-2 9 2 18 3h25l15-1 22-5 19-7z" fill="#B4C7D2"/>
<path transform="translate(550,849)" d="m0 0h1v6l-3 4h-2l-2 6h-2l-2 4-4 4h-2v2l-7 4-7 2-11 1h-10l-12-3-3-3 2-1 10 3h21l12-5 10-8 9-12z" fill="#DB9966"/>
<path transform="translate(890,802)" d="m0 0 9 2 7 9 9 22 4 3-2 3-6-3-3-5-7-17-5-9v-2l-7-1z" fill="#C38767"/>
<path transform="translate(457,693)" d="m0 0 3 1-6 2v2h5l-4 2-35 9h-3v23h-1l-1-11v-12h-7l4-2 25-7z" fill="#9B664D"/>
<path transform="translate(488,1076)" d="m0 0 4 4 8 12 9 10 11 10 10 8-4 1-11-8-8-7-10-11-6-9-3-6z" fill="#F0F2F3"/>
<path transform="translate(412,1289)" d="m0 0 8 6 2 1 3 6v5h2l4 6 4 7 5 6-1 2-7-8-14-19-6-10z" fill="#B88163"/>
<path transform="translate(855,1562)" d="m0 0 5 1 2 1v17l-1 15-2 1-2-31z" fill="#F3F5F6"/>
<path transform="translate(396,1560)" d="m0 0h5l-4 3-4 4-1 2h-2v18l-2-3-1-18 3-4z" fill="#EBEEF0"/>
<path transform="translate(690,683)" d="m0 0h11l7 1v2l-13 1-2 5-5 1v-7z" fill="#CC8D61"/>
<path transform="translate(441,988)" d="m0 0 4 1 13 6v2l5 2 4 2 3 3v2l-5-2-18-11-6-4z" fill="#C78D6D"/>
<path transform="translate(457,693)" d="m0 0 3 1-6 2v2h5l-4 2-20 3 2-3z" fill="#A76F54"/>
<path transform="translate(484,1015)" d="m0 0 3 2 4 13-1 2-4-3v-3h-2l-1 2v-9z" fill="#A8C0CE"/>
<path transform="translate(700,857)" d="m0 0 28 2-3 2h-18l-7-3z" fill="#DB9966"/>
<path transform="translate(316,876)" d="m0 0 1 4-4 10-4-1-7-7h3l3 3 6-1 1-6z" fill="#C68B69"/>
<path transform="translate(768,796)" d="m0 0 3 1 2 5-1 2h-2v2h-2l-1 4z" fill="#C38768"/>
</svg>
